<svg width="12" height="12" viewBox="0 0 12 12" fill="none" xmlns="http://www.w3.org/2000/svg">
<g clip-path="url(#clip0_1_639)">
<path d="M11.6087 8.52167L11.6087 3.4021C11.6087 1.73589 10.2532 0.380371 8.58697 0.380371L3.46732 0.380371C1.8012 0.380371 0.44568 1.73589 0.44568 3.4021L0.445679 8.52175C0.445679 10.1879 1.8012 11.5434 3.46732 11.5434L8.58697 11.5434C10.2532 11.5434 11.6087 10.1879 11.6087 8.52167V8.52167ZM3.46732 10.889C2.16205 10.889 1.1001 9.82702 1.1001 8.52167L1.1001 3.4021C1.1001 2.09674 2.16205 1.03479 3.46732 1.03479L8.58697 1.0348C9.89233 1.0348 10.9543 2.09674 10.9543 3.4021L10.9543 8.52175C10.9543 9.82702 9.89233 10.889 8.58697 10.889L3.46732 10.889Z" fill="#1A202C"/>
<path d="M9.07947 5.96197C9.07947 4.2789 7.71024 2.90967 6.02716 2.90967C4.34409 2.90967 2.97486 4.2789 2.97486 5.96197C2.97486 7.64504 4.34409 9.01428 6.02716 9.01428C7.71024 9.01428 9.07947 7.64504 9.07947 5.96197ZM3.62928 5.96197C3.62928 4.63984 4.70495 3.56409 6.02716 3.56409C7.3493 3.56409 8.42504 4.63984 8.42504 5.96197C8.42504 7.28419 7.3493 8.35985 6.02716 8.35985C4.70494 8.35985 3.62928 7.28419 3.62928 5.96197Z" fill="#1A202C"/>
<path d="M10.1635 9.08722C10.1635 8.58985 9.75888 8.1853 9.26159 8.1853C8.76422 8.1853 8.35959 8.58985 8.35959 9.08722C8.35959 9.5846 8.76422 9.98923 9.26159 9.98923C9.75897 9.98923 10.1635 9.5846 10.1635 9.08722ZM9.0141 9.08722C9.0141 8.95078 9.12516 8.83973 9.26159 8.83973C9.39812 8.83973 9.50909 8.95078 9.50909 9.08722C9.50909 9.22374 9.39812 9.3348 9.26159 9.3348C9.12516 9.3348 9.0141 9.22374 9.0141 9.08722Z" fill="#1A202C"/>
</g>
<defs>
<clipPath id="clip0_1_639">
<rect width="11.163" height="11.163" fill="white" transform="translate(11.6087 0.380371) rotate(90)"/>
</clipPath>
</defs>
</svg>
